<svg width="27" height="27" viewBox="0 0 27 27" fill="none" xmlns="http://www.w3.org/2000/svg">
<g clip-path="url(#clip0_397_580)">
<mask id="mask0_397_580" style="mask-type:luminance" maskUnits="userSpaceOnUse" x="0" y="0" width="27" height="27">
<path d="M26.9 0H0.5V26.4H26.9V0Z" fill="white"/>
</mask>
<g mask="url(#mask0_397_580)">
<path d="M14.0737 12.5881C13.985 12.6295 13.8892 12.6534 13.7914 12.6582C13.09 12.6531 12.5312 11.4304 12.4922 9.95409C12.5011 8.65707 12.9196 7.57496 13.486 7.29865C13.5751 7.2555 13.6731 7.23414 13.7719 7.23629C14.4697 7.23353 15.0285 8.45625 15.0247 9.96305C15.0198 11.2485 14.5935 12.3344 14.035 12.6069" fill="white"/>
<path d="M19.046 14.1658C18.4309 14.4351 17.7648 14.5658 17.0944 14.5487C15.5989 14.5453 14.3807 13.9432 14.3932 13.2715C14.428 13.0697 14.5167 12.8811 14.6497 12.7262C14.7827 12.5712 14.9551 12.4556 15.1483 12.3918C15.7655 12.1199 16.4344 11.9879 17.1076 12.005C18.5955 12.0124 19.8214 12.6105 19.8012 13.2861C19.8045 13.6317 19.5115 13.9387 19.046 14.1658Z" fill="white"/>
<path d="M12.3692 14.201C11.7551 14.4701 11.0909 14.6034 10.4214 14.5918C8.92582 14.5883 7.70769 13.9862 7.71635 13.3067C7.75116 13.1049 7.83984 12.9164 7.97288 12.7614C8.10592 12.6064 8.2783 12.4908 8.47155 12.427C9.08872 12.1552 9.75754 12.0232 10.4308 12.0403C11.9186 12.0475 13.1368 12.6496 13.1166 13.325C13.1199 13.6708 12.8346 13.9739 12.3692 14.201Z" fill="white"/>
<path d="M14.0192 19.3102C13.9301 19.3533 13.8321 19.3747 13.7332 19.3726C13.0355 19.3753 12.4689 18.1564 12.4727 16.6495C12.4815 15.3525 12.9001 14.2704 13.4664 13.9941C13.5555 13.951 13.6536 13.9296 13.7524 13.9317C14.4502 13.9289 15.009 15.1517 15.0051 16.6585C15.0041 17.9518 14.5778 19.0377 14.0192 19.3102Z" fill="white"/>
<path d="M23.3137 19.5801C21.7621 20.337 20.182 18.8023 20.0283 17.2468C20.2883 17.5862 20.6497 17.8324 21.0591 17.9487C21.4685 18.0651 21.9043 18.0457 22.3021 17.8934C22.4418 17.8245 22.5693 17.733 22.6794 17.6224C22.8427 17.424 22.9636 17.1939 23.0346 16.9463C23.1057 16.6988 23.1254 16.4393 23.0925 16.1838C23.0596 15.9283 22.9747 15.6824 22.8433 15.4614C22.712 15.2404 22.5368 15.049 22.3287 14.8993C22.7282 14.9374 23.1303 14.8646 23.4916 14.6889C23.7722 14.5696 24.0123 14.3706 24.1825 14.1163C24.3528 13.8619 24.4459 13.5631 24.4505 13.2563C24.424 13.0061 24.3474 12.7639 24.2253 12.5444C24.1031 12.3249 23.938 12.1328 23.7399 11.9796C23.5418 11.8263 23.3148 11.7152 23.0728 11.6531C22.8309 11.5908 22.5788 11.5788 22.332 11.6176C22.534 11.4698 22.7041 11.2824 22.8325 11.0667C22.9608 10.851 23.0445 10.6113 23.0787 10.3622C23.1128 10.1131 23.0967 9.85964 23.0311 9.61705C22.9656 9.37438 22.8522 9.14759 22.6976 8.95024C22.4402 8.7147 22.1159 8.56684 21.7704 8.52758C21.425 8.48832 21.0759 8.5597 20.773 8.73156C20.4913 8.86801 20.2427 9.065 20.0447 9.30871C20.1006 8.82349 20.2725 8.35914 20.5455 7.95543C20.8185 7.55172 21.1846 7.22069 21.6123 6.99069C22.0292 6.79078 22.5004 6.73766 22.9507 6.83988C23.4009 6.94209 23.8041 7.19371 24.0953 7.55437C24.3483 7.76934 24.5474 8.0412 24.6769 8.34804C24.8063 8.65487 24.8623 8.98807 24.8406 9.32077C24.8187 9.65344 24.7195 9.97637 24.551 10.2634C24.3825 10.5504 24.1495 10.7934 23.8706 10.9731C24.1953 10.9063 24.5309 10.9169 24.8508 11.0039C25.1708 11.0909 25.4661 11.252 25.7133 11.4742C25.9605 11.6965 26.1527 11.9738 26.2748 12.2842C26.3969 12.5946 26.4453 12.9294 26.4164 13.2619C26.4504 13.6785 26.3614 14.0959 26.1606 14.4617C25.9597 14.8275 25.656 15.1253 25.2877 15.3176C24.8393 15.5226 24.3424 15.5945 23.8549 15.5246C24.1333 15.7068 24.3654 15.9523 24.5323 16.2413C24.6994 16.5304 24.7967 16.8549 24.8164 17.1888C24.8361 17.5226 24.7778 17.8566 24.6461 18.1636C24.5143 18.4707 24.3129 18.7422 24.0579 18.9565C23.8391 19.18 23.5854 19.3656 23.3069 19.5062" fill="white"/>
<path d="M18.6629 6.69288C18.3551 6.84726 18.0222 6.94435 17.6801 6.97941C17.8834 6.83198 18.055 6.64476 18.1847 6.42896C18.3145 6.21315 18.3997 5.97323 18.4353 5.72349C18.4708 5.47376 18.456 5.21937 18.3918 4.97556C18.3275 4.73175 18.215 4.50348 18.0611 4.30448C17.8027 4.07221 17.4787 3.92705 17.1343 3.88925C16.79 3.85144 16.4425 3.92289 16.1403 4.09362C15.8587 4.23007 15.6101 4.42708 15.4122 4.67078C15.4503 4.42215 15.4387 4.16835 15.3779 3.92436C15.3171 3.68036 15.2084 3.4511 15.0583 3.2501C14.9082 3.0491 14.7197 2.88043 14.5037 2.75405C14.2879 2.62766 14.0491 2.54612 13.8014 2.51421C13.587 2.51745 13.3759 2.56778 13.1828 2.66168C12.84 2.85877 12.5621 3.15285 12.3835 3.50748C12.205 3.86212 12.1336 4.26172 12.1782 4.65679C11.9175 4.31854 11.556 4.07328 11.1469 3.95695C10.7378 3.84063 10.3024 3.85933 9.90446 4.0103C9.76475 4.07909 9.63725 4.17063 9.5271 4.28124C9.36919 4.47748 9.25226 4.70382 9.18329 4.94669C9.11432 5.18955 9.09475 5.44395 9.12575 5.6946C9.15676 5.94525 9.23769 6.18699 9.3637 6.40534C9.48972 6.62368 9.65821 6.81413 9.85908 6.96525C8.08065 6.77172 6.31072 4.70244 8.12641 2.8808C8.34261 2.65882 8.59376 2.47438 8.86965 2.3349C9.33016 2.12385 9.85033 2.08562 10.3363 2.22713C10.8223 2.36864 11.2419 2.68056 11.5196 3.10655C11.4374 2.65134 11.5001 2.18158 11.6985 1.76428C11.8969 1.34698 12.2211 1.00343 12.6246 0.782616C12.9898 0.611678 13.3895 0.528994 13.7919 0.541153C14.1219 0.51387 14.4537 0.564837 14.7606 0.689968C15.0675 0.815098 15.341 1.01092 15.5593 1.26173C15.7774 1.51255 15.9344 1.8114 16.0174 2.13434C16.1004 2.45726 16.1072 2.79528 16.0371 3.12135C16.2811 2.8005 16.5959 2.54126 16.9565 2.3641C17.3723 2.16581 17.8418 2.11279 18.2908 2.21347C18.7398 2.31414 19.1427 2.56275 19.4357 2.91997C20.897 4.40663 19.9817 6.04944 18.6474 6.70044" fill="white"/>
<path d="M18.6319 24.2662C18.1699 24.4758 17.6487 24.5124 17.1623 24.3695C16.6759 24.2266 16.256 23.9137 15.9783 23.4867C16.0638 23.9428 16.0033 24.4145 15.8053 24.8337C15.6073 25.2528 15.2822 25.5977 14.8768 25.8185C14.5138 25.9869 14.1169 26.0683 13.7174 26.0562C13.3877 26.0827 13.0563 26.0315 12.7497 25.9065C12.4429 25.7816 12.1694 25.5863 11.9508 25.3363C11.7321 25.0862 11.5743 24.7882 11.4899 24.4659C11.4054 24.1436 11.3967 23.806 11.4644 23.4798C11.2139 23.7983 10.8976 24.058 10.5373 24.2408C10.1223 24.4383 9.65373 24.4904 9.206 24.3891C8.75827 24.2876 8.35699 24.0385 8.06583 23.6812C6.59681 22.1982 7.51982 20.5516 8.85415 19.9007C9.15916 19.7469 9.48969 19.651 9.82916 19.6179C9.62722 19.7658 9.45701 19.9531 9.3287 20.1688C9.20041 20.3846 9.11666 20.6241 9.08253 20.8732C9.04839 21.1223 9.06456 21.3759 9.13004 21.6185C9.19553 21.8612 9.309 22.0879 9.46364 22.2853C9.72018 22.5212 10.0445 22.6686 10.3898 22.7065C10.7351 22.7444 11.0834 22.6708 11.3845 22.4962C11.6492 22.3604 11.8848 22.1733 12.0776 21.9457C12.0419 22.1908 12.0552 22.4406 12.1167 22.6803C12.1783 22.9201 12.2867 23.1451 12.4358 23.342C12.5848 23.5389 12.7714 23.7038 12.9846 23.827C13.1979 23.9503 13.4334 24.0293 13.6773 24.0594C13.8902 24.0655 14.1012 24.0188 14.292 23.9236C14.6331 23.7231 14.9099 23.4282 15.0894 23.0738C15.2689 22.7194 15.3435 22.3205 15.3043 21.9247C15.565 22.2619 15.9261 22.5059 16.3348 22.6209C16.7434 22.7359 17.1779 22.7157 17.5743 22.5633C17.7136 22.4939 17.841 22.4025 17.9517 22.2924C18.1107 22.0967 18.2287 21.8704 18.2984 21.6273C18.368 21.3844 18.3878 21.1296 18.3568 20.8786C18.3258 20.6275 18.2444 20.3855 18.1177 20.1672C17.991 19.9489 17.8216 19.7588 17.6197 19.6084C19.4058 19.7982 21.1718 21.879 19.3679 23.6852C19.1486 23.9081 18.895 24.0938 18.6169 24.235" fill="white"/>
<path d="M5.89832 19.5289C5.48251 19.7272 5.01298 19.7802 4.56397 19.6796C4.11498 19.5789 3.71213 19.3302 3.41912 18.973C3.16607 18.7568 2.96669 18.484 2.83691 18.1764C2.70712 17.8687 2.65052 17.5348 2.67163 17.2011C2.69273 16.8674 2.79096 16.5433 2.95847 16.2547C3.12597 15.966 3.35811 15.7209 3.63636 15.5387C3.11286 15.5886 2.58813 15.4576 2.14825 15.1675C1.70838 14.8773 1.37951 14.4451 1.2156 13.9417C1.0517 13.4384 1.06251 12.8938 1.24625 12.3974C1.42999 11.901 1.77575 11.4822 2.22678 11.2098C2.67321 11.0028 3.16889 10.9283 3.65578 10.995C3.37907 10.8123 3.14862 10.5669 2.98292 10.2784C2.81721 9.98992 2.72083 9.66633 2.70147 9.33355C2.68212 9.00078 2.7403 8.66805 2.87142 8.36197C3.00255 8.0559 3.20294 7.78497 3.45657 7.57086C3.67493 7.34696 3.92874 7.1612 4.20757 7.02118C5.75912 6.26419 7.32772 7.79493 7.48911 9.34659C7.22748 9.00944 6.86604 8.76505 6.45721 8.64881C6.04839 8.53258 5.61343 8.55055 5.21538 8.70014C5.07565 8.76892 4.94815 8.86046 4.83801 8.97107C4.6748 9.16945 4.5539 9.39956 4.48284 9.6471C4.41178 9.8946 4.39208 10.1542 4.42499 10.4097C4.4579 10.6651 4.54269 10.9111 4.6741 11.132C4.8055 11.353 4.98071 11.5444 5.18876 11.6941C4.78933 11.656 4.38712 11.7288 4.02578 11.9046C3.74523 12.0239 3.50518 12.2228 3.33492 12.4772C3.16467 12.7316 3.07155 13.0304 3.06696 13.3372C3.09613 13.5868 3.17485 13.828 3.29841 14.0465C3.42197 14.2648 3.58785 14.456 3.7862 14.6085C3.98455 14.7611 4.21131 14.8718 4.45301 14.9343C4.69472 14.9968 4.94644 15.0096 5.1932 14.9721C4.98983 15.1184 4.81795 15.3047 4.68787 15.5197C4.55778 15.7347 4.47221 15.974 4.43626 16.2231C4.40031 16.4723 4.41475 16.7261 4.4787 16.9694C4.54266 17.2128 4.65481 17.4407 4.80841 17.6392C5.06732 17.8738 5.3931 18.02 5.73937 18.0573C6.08564 18.0944 6.43475 18.0206 6.737 17.8463C7.00381 17.7138 7.23997 17.5263 7.43016 17.2958C7.37589 17.7801 7.20554 18.2438 6.9338 18.647C6.66205 19.0501 6.29706 19.3807 5.8703 19.6101" fill="white"/>
<path d="M10.2926 18.6293C9.98768 18.776 9.64098 18.8093 9.31404 18.7231C8.98712 18.637 8.70103 18.437 8.50649 18.1586C8.31195 17.8803 8.22146 17.5415 8.25113 17.2023C8.2808 16.8632 8.42869 16.5454 8.66857 16.3056C8.77992 16.1968 8.90879 16.1078 9.04969 16.0425C9.3583 15.8929 9.7086 15.8548 10.0417 15.9347C9.89991 15.9433 9.7609 15.9785 9.6318 16.0383C9.53439 16.0861 9.44512 16.1491 9.3673 16.2251C9.1986 16.3917 9.09441 16.6134 9.07355 16.8504C9.05269 17.0874 9.11651 17.3241 9.2535 17.5179C9.3905 17.7116 9.59164 17.8498 9.82076 17.9074C10.0499 17.9649 10.2919 17.9382 10.5032 17.832C10.6006 17.7841 10.6899 17.7211 10.7677 17.6451C10.9403 17.4655 11.0443 17.2301 11.0614 16.9807C11.1382 17.2297 11.1468 17.4948 11.0867 17.7482C11.0264 18.0018 10.8995 18.2342 10.7192 18.4211C10.6065 18.5331 10.4765 18.6258 10.3342 18.6959" fill="white"/>
<path d="M18.4411 18.6866C18.1957 18.8067 17.9214 18.8533 17.6505 18.8206C17.3797 18.788 17.1239 18.6777 16.9136 18.5026C16.7034 18.3276 16.5475 18.0954 16.4647 17.8336C16.3818 17.5717 16.3755 17.2915 16.4463 17.0261C16.4611 17.2783 16.5745 17.5144 16.7617 17.6825C16.9068 17.828 17.093 17.9247 17.2947 17.9593C17.4965 17.9939 17.704 17.9645 17.8887 17.8755C17.9886 17.8264 18.0804 17.7621 18.161 17.6849C18.2976 17.5479 18.3916 17.3739 18.4316 17.184C18.4715 16.9941 18.4557 16.7966 18.386 16.6157C18.3163 16.4347 18.1958 16.2781 18.0392 16.1651C17.8826 16.0521 17.6967 15.9875 17.5043 15.9793C17.8074 15.9047 18.1263 15.9318 18.4126 16.0568C18.6989 16.1817 18.9367 16.3975 19.0899 16.6713C19.2432 16.945 19.3034 17.2618 19.2614 17.5733C19.2194 17.8848 19.0775 18.1739 18.8573 18.3966C18.7445 18.5086 18.6144 18.6013 18.4722 18.6714" fill="white"/>
<path d="M18.4686 10.4922C18.1639 10.6426 17.8152 10.6754 17.4882 10.5846C17.6276 10.5789 17.7644 10.5451 17.8904 10.4848C17.9853 10.4381 18.072 10.3763 18.1472 10.3017C18.3147 10.1361 18.4186 9.91616 18.4404 9.68073C18.4621 9.4454 18.4002 9.20987 18.2658 9.01615C18.1313 8.82243 17.933 8.68306 17.7062 8.62284C17.4792 8.56263 17.2385 8.58546 17.0268 8.68729C16.9253 8.73526 16.834 8.8027 16.7582 8.88584C16.581 9.06222 16.4761 9.29935 16.4645 9.55005C16.4019 9.30738 16.4046 9.0523 16.472 8.81091C16.5394 8.56952 16.6692 8.3505 16.8483 8.17625C16.961 8.06432 17.0911 7.97155 17.2333 7.90154C17.5378 7.74772 17.8868 7.70903 18.2171 7.79254C18.5474 7.87605 18.837 8.07617 19.0331 8.35657C19.2293 8.63696 19.319 8.97899 19.2861 9.32049C19.2531 9.66197 19.0997 9.98028 18.8536 10.2174C18.7408 10.3293 18.6108 10.4222 18.4686 10.4922Z" fill="white"/>
<path d="M10.0718 10.5565C9.76904 10.637 9.44845 10.6148 9.15967 10.4931C8.87088 10.3713 8.63003 10.157 8.47451 9.88331C8.31899 9.60959 8.25746 9.29177 8.2995 8.9792C8.34152 8.66662 8.48475 8.37674 8.70695 8.1545C8.81963 8.03792 8.95288 7.94347 9.09985 7.87599C9.34529 7.75792 9.61903 7.71276 9.88899 7.74582C10.159 7.77888 10.4139 7.88876 10.6242 8.06262C10.8344 8.23648 10.991 8.46711 11.0756 8.72747C11.1603 8.98783 11.1696 9.26716 11.1024 9.53266C11.0742 9.28413 10.9631 9.05263 10.787 8.8762C10.6415 8.72757 10.4534 8.62864 10.2492 8.59329C10.045 8.55795 9.83495 8.58795 9.64853 8.67914C9.55016 8.72683 9.46167 8.79293 9.38778 8.87389C9.20222 9.061 9.09713 9.31411 9.0952 9.57857C9.09328 9.84304 9.19465 10.0977 9.37747 10.2874C9.56011 10.4596 9.79848 10.5592 10.0485 10.5678" fill="white"/>
</g>
</g>
<defs>
<clipPath id="clip0_397_580">
<rect width="26.4" height="26.4" fill="white" transform="translate(0.5)"/>
</clipPath>
</defs>
</svg>
