<svg width="27" height="27" viewBox="0 0 27 27" fill="none" xmlns="http://www.w3.org/2000/svg">
<g clip-path="url(#clip0_404_4685)">
<mask id="mask0_404_4685" style="mask-type:luminance" maskUnits="userSpaceOnUse" x="0" y="0" width="27" height="27">
<path d="M26.9 0H0.5V26.4H26.9V0Z" fill="white"/>
</mask>
<g mask="url(#mask0_404_4685)">
<path d="M14.0737 12.5882C13.985 12.6297 13.8892 12.6536 13.7914 12.6584C13.09 12.6533 12.5312 11.4306 12.4922 9.95427C12.5011 8.65725 12.9196 7.57514 13.486 7.29884C13.5751 7.25568 13.6731 7.23433 13.7719 7.23648C14.4697 7.23371 15.0285 8.45643 15.0247 9.96323C15.0198 11.2487 14.5935 12.3346 14.035 12.6071" fill="#CC4422"/>
<path d="M19.046 14.1661C18.4309 14.4355 17.7648 14.5662 17.0944 14.5491C15.5989 14.5456 14.3807 13.9436 14.3932 13.2719C14.428 13.07 14.5167 12.8815 14.6497 12.7266C14.7827 12.5716 14.9551 12.456 15.1483 12.3921C15.7655 12.1203 16.4344 11.9883 17.1076 12.0054C18.5955 12.0127 19.8214 12.6109 19.8012 13.2864C19.8045 13.6321 19.5115 13.9391 19.046 14.1661Z" fill="#CC4422"/>
<path d="M12.3692 14.2013C11.7551 14.4704 11.0909 14.6037 10.4214 14.592C8.92582 14.5885 7.70769 13.9865 7.71635 13.307C7.75116 13.1051 7.83984 12.9166 7.97288 12.7616C8.10592 12.6066 8.2783 12.491 8.47155 12.4272C9.08872 12.1555 9.75754 12.0235 10.4308 12.0405C11.9186 12.0478 13.1368 12.6498 13.1166 13.3253C13.1199 13.671 12.8346 13.9741 12.3692 14.2013Z" fill="#CC4422"/>
<path d="M14.0192 19.3102C13.9301 19.3534 13.8321 19.3748 13.7332 19.3726C13.0355 19.3754 12.4689 18.1564 12.4727 16.6496C12.4815 15.3526 12.9001 14.2705 13.4664 13.9941C13.5555 13.951 13.6536 13.9296 13.7524 13.9318C14.4502 13.929 15.009 15.1518 15.0051 16.6585C15.0041 17.9519 14.5778 19.0377 14.0192 19.3102Z" fill="#CC4422"/>
<path d="M23.3137 19.5801C21.7621 20.337 20.182 18.8022 20.0283 17.2468C20.2883 17.5861 20.6497 17.8323 21.0591 17.9486C21.4685 18.0651 21.9043 18.0457 22.3021 17.8933C22.4418 17.8245 22.5693 17.7329 22.6794 17.6223C22.8427 17.4239 22.9636 17.1939 23.0346 16.9463C23.1057 16.6988 23.1254 16.4392 23.0925 16.1837C23.0596 15.9282 22.9747 15.6823 22.8433 15.4614C22.712 15.2404 22.5368 15.049 22.3287 14.8992C22.7282 14.9373 23.1303 14.8646 23.4916 14.6888C23.7722 14.5695 24.0123 14.3706 24.1825 14.1162C24.3528 13.8618 24.4459 13.563 24.4505 13.2562C24.424 13.0061 24.3474 12.7639 24.2253 12.5444C24.1031 12.3249 23.938 12.1327 23.7399 11.9795C23.5418 11.8263 23.3148 11.7151 23.0728 11.653C22.8309 11.5908 22.5788 11.5787 22.332 11.6175C22.534 11.4697 22.7041 11.2824 22.8325 11.0666C22.9608 10.8509 23.0445 10.6112 23.0787 10.3621C23.1128 10.113 23.0967 9.85958 23.0311 9.61699C22.9656 9.37432 22.8522 9.14753 22.6976 8.95018C22.4402 8.71464 22.1159 8.56677 21.7704 8.52752C21.425 8.48826 21.0759 8.55964 20.773 8.7315C20.4913 8.86795 20.2427 9.06494 20.0447 9.30865C20.1006 8.82343 20.2725 8.35908 20.5455 7.95537C20.8185 7.55166 21.1846 7.22063 21.6123 6.99063C22.0292 6.79071 22.5004 6.7376 22.9507 6.83982C23.4009 6.94203 23.8041 7.19364 24.0953 7.55431C24.3483 7.76928 24.5474 8.04114 24.6769 8.34798C24.8063 8.65481 24.8623 8.98801 24.8406 9.32071C24.8187 9.65338 24.7195 9.97631 24.551 10.2633C24.3825 10.5503 24.1495 10.7934 23.8706 10.973C24.1953 10.9062 24.5309 10.9168 24.8508 11.0038C25.1708 11.0909 25.4661 11.2519 25.7133 11.4741C25.9605 11.6965 26.1527 11.9738 26.2748 12.2841C26.3969 12.5945 26.4453 12.9293 26.4164 13.2619C26.4504 13.6784 26.3614 14.0958 26.1606 14.4617C25.9597 14.8274 25.656 15.1253 25.2877 15.3175C24.8393 15.5226 24.3424 15.5944 23.8549 15.5246C24.1333 15.7067 24.3654 15.9522 24.5323 16.2412C24.6994 16.5303 24.7967 16.8548 24.8164 17.1887C24.8361 17.5226 24.7778 17.8565 24.6461 18.1635C24.5143 18.4706 24.3129 18.7421 24.0579 18.9565C23.8391 19.1799 23.5854 19.3656 23.3069 19.5061" fill="#CC4422"/>
<path d="M18.6629 6.69306C18.3551 6.84745 18.0222 6.94453 17.6801 6.9796C17.8834 6.83216 18.055 6.64494 18.1847 6.42914C18.3145 6.21334 18.3997 5.97341 18.4353 5.72367C18.4708 5.47394 18.456 5.21956 18.3918 4.97574C18.3275 4.73193 18.215 4.50366 18.0611 4.30466C17.8027 4.07239 17.4787 3.92723 17.1343 3.88943C16.79 3.85162 16.4425 3.92307 16.1403 4.0938C15.8587 4.23025 15.6101 4.42726 15.4122 4.67096C15.4503 4.42233 15.4387 4.16853 15.3779 3.92454C15.3171 3.68054 15.2084 3.45128 15.0583 3.25029C14.9082 3.04929 14.7197 2.88061 14.5037 2.75423C14.2879 2.62784 14.0491 2.5463 13.8014 2.5144C13.587 2.51763 13.3759 2.56796 13.1828 2.66187C12.84 2.85895 12.5621 3.15303 12.3835 3.50767C12.205 3.8623 12.1336 4.26191 12.1782 4.65697C11.9175 4.31872 11.556 4.07347 11.1469 3.95714C10.7378 3.84082 10.3024 3.85951 9.90446 4.01048C9.76475 4.07927 9.63725 4.17082 9.5271 4.28142C9.36919 4.47766 9.25226 4.704 9.18329 4.94687C9.11432 5.18973 9.09475 5.44414 9.12575 5.69478C9.15676 5.94543 9.23769 6.18717 9.3637 6.40552C9.48972 6.62387 9.65821 6.81431 9.85908 6.96544C8.08065 6.7719 6.31072 4.70263 8.12641 2.88098C8.34261 2.659 8.59376 2.47456 8.86965 2.33508C9.33016 2.12403 9.85033 2.0858 10.3363 2.22731C10.8223 2.36882 11.2419 2.68074 11.5196 3.10674C11.4374 2.65152 11.5001 2.18176 11.6985 1.76447C11.8969 1.34717 12.2211 1.00362 12.6246 0.782799C12.9898 0.611861 13.3895 0.529178 13.7919 0.541336C14.1219 0.514053 14.4537 0.56502 14.7606 0.690151C15.0675 0.815281 15.341 1.0111 15.5593 1.26191C15.7774 1.51273 15.9344 1.81158 16.0174 2.13452C16.1004 2.45745 16.1072 2.79546 16.0371 3.12153C16.2811 2.80068 16.5959 2.54145 16.9565 2.36428C17.3723 2.16599 17.8418 2.11297 18.2908 2.21365C18.7398 2.31432 19.1427 2.56293 19.4357 2.92015C20.897 4.40681 19.9817 6.04962 18.6474 6.70062" fill="#CC4422"/>
<path d="M18.6319 24.2662C18.1699 24.4758 17.6487 24.5124 17.1623 24.3695C16.6759 24.2266 16.256 23.9137 15.9783 23.4867C16.0638 23.9428 16.0033 24.4145 15.8053 24.8337C15.6073 25.2528 15.2822 25.5977 14.8768 25.8185C14.5138 25.9869 14.1169 26.0683 13.7174 26.0562C13.3877 26.0827 13.0563 26.0315 12.7497 25.9065C12.4429 25.7816 12.1694 25.5863 11.9508 25.3363C11.7321 25.0862 11.5743 24.7882 11.4899 24.4659C11.4054 24.1436 11.3967 23.806 11.4644 23.4798C11.2139 23.7983 10.8976 24.058 10.5373 24.2408C10.1223 24.4383 9.65373 24.4904 9.206 24.3891C8.75827 24.2876 8.35699 24.0385 8.06583 23.6812C6.59681 22.1982 7.51982 20.5516 8.85415 19.9007C9.15916 19.7469 9.48969 19.651 9.82916 19.6179C9.62722 19.7658 9.45701 19.9531 9.3287 20.1688C9.20041 20.3846 9.11666 20.6241 9.08253 20.8732C9.04839 21.1223 9.06456 21.3759 9.13004 21.6185C9.19553 21.8612 9.309 22.0879 9.46364 22.2853C9.72018 22.5212 10.0445 22.6686 10.3898 22.7065C10.7351 22.7444 11.0834 22.6708 11.3845 22.4962C11.6492 22.3604 11.8848 22.1733 12.0776 21.9457C12.0419 22.1908 12.0552 22.4406 12.1167 22.6803C12.1783 22.9201 12.2867 23.1451 12.4358 23.342C12.5848 23.5389 12.7714 23.7038 12.9846 23.827C13.1979 23.9503 13.4334 24.0293 13.6773 24.0594C13.8902 24.0655 14.1012 24.0188 14.292 23.9236C14.6331 23.7231 14.9099 23.4282 15.0894 23.0738C15.2689 22.7194 15.3435 22.3205 15.3043 21.9247C15.565 22.2619 15.9261 22.5059 16.3348 22.6209C16.7434 22.7359 17.1779 22.7157 17.5743 22.5633C17.7136 22.4939 17.841 22.4025 17.9517 22.2924C18.1107 22.0967 18.2287 21.8704 18.2984 21.6273C18.368 21.3844 18.3878 21.1296 18.3568 20.8786C18.3258 20.6275 18.2444 20.3855 18.1177 20.1672C17.991 19.9489 17.8216 19.7588 17.6197 19.6084C19.4058 19.7982 21.1718 21.879 19.3679 23.6852C19.1486 23.9081 18.895 24.0938 18.6169 24.235" fill="#CC4422"/>
<path d="M5.89832 19.5291C5.48251 19.7274 5.01298 19.7804 4.56397 19.6798C4.11498 19.5791 3.71213 19.3305 3.41912 18.9732C3.16607 18.757 2.96669 18.4843 2.83691 18.1766C2.70712 17.869 2.65052 17.535 2.67163 17.2013C2.69273 16.8676 2.79096 16.5436 2.95847 16.255C3.12597 15.9663 3.35811 15.7211 3.63636 15.539C3.11286 15.5889 2.58813 15.4579 2.14825 15.1678C1.70838 14.8776 1.37951 14.4454 1.2156 13.942C1.0517 13.4387 1.06251 12.8941 1.24625 12.3977C1.42999 11.9012 1.77575 11.4824 2.22678 11.21C2.67321 11.0031 3.16889 10.9286 3.65578 10.9953C3.37907 10.8125 3.14862 10.5672 2.98292 10.2787C2.81721 9.99017 2.72083 9.66658 2.70147 9.3338C2.68212 9.00102 2.7403 8.6683 2.87142 8.36222C3.00255 8.05614 3.20294 7.78521 3.45657 7.57111C3.67493 7.34721 3.92874 7.16144 4.20757 7.02142C5.75912 6.26444 7.32772 7.79518 7.48911 9.34684C7.22748 9.00969 6.86604 8.76529 6.45721 8.64906C6.04839 8.53282 5.61343 8.55079 5.21538 8.70038C5.07565 8.76917 4.94815 8.86071 4.83801 8.97131C4.6748 9.16969 4.5539 9.39981 4.48284 9.64734C4.41178 9.89484 4.39208 10.1544 4.42499 10.4099C4.4579 10.6653 4.54269 10.9113 4.6741 11.1322C4.8055 11.3533 4.98071 11.5447 5.18876 11.6944C4.78933 11.6563 4.38712 11.7291 4.02578 11.9048C3.74523 12.0241 3.50518 12.223 3.33492 12.4774C3.16467 12.7318 3.07155 13.0306 3.06696 13.3374C3.09613 13.5871 3.17485 13.8283 3.29841 14.0467C3.42197 14.2651 3.58785 14.4562 3.7862 14.6088C3.98455 14.7613 4.21131 14.8721 4.45301 14.9345C4.69472 14.997 4.94644 15.0098 5.1932 14.9723C4.98983 15.1186 4.81795 15.305 4.68787 15.5199C4.55778 15.7349 4.47221 15.9742 4.43626 16.2233C4.40031 16.4725 4.41475 16.7263 4.4787 16.9697C4.54266 17.213 4.65481 17.4409 4.80841 17.6395C5.06732 17.8741 5.3931 18.0203 5.73937 18.0575C6.08564 18.0947 6.43475 18.0209 6.737 17.8465C7.00381 17.7141 7.23997 17.5265 7.43016 17.2961C7.37589 17.7803 7.20554 18.244 6.9338 18.6472C6.66205 19.0504 6.29706 19.3809 5.8703 19.6103" fill="#CC4422"/>
<path d="M10.2926 18.6295C9.98768 18.7762 9.64098 18.8095 9.31404 18.7233C8.98712 18.6371 8.70103 18.4372 8.50649 18.1588C8.31195 17.8805 8.22146 17.5417 8.25113 17.2025C8.2808 16.8633 8.42869 16.5456 8.66857 16.3057C8.77992 16.1969 8.90879 16.108 9.04969 16.0427C9.3583 15.8931 9.7086 15.855 10.0417 15.9349C9.89991 15.9435 9.7609 15.9787 9.6318 16.0384C9.53439 16.0862 9.44512 16.1493 9.3673 16.2253C9.1986 16.3919 9.09441 16.6136 9.07355 16.8506C9.05269 17.0876 9.11651 17.3243 9.2535 17.5181C9.3905 17.7118 9.59164 17.85 9.82076 17.9076C10.0499 17.9651 10.2919 17.9384 10.5032 17.8321C10.6006 17.7843 10.6899 17.7213 10.7677 17.6453C10.9403 17.4656 11.0443 17.2303 11.0614 16.9809C11.1382 17.2298 11.1468 17.495 11.0867 17.7484C11.0264 18.0019 10.8995 18.2344 10.7192 18.4213C10.6065 18.5332 10.4765 18.626 10.3342 18.6961" fill="#CC4422"/>
<path d="M18.4411 18.6865C18.1957 18.8066 17.9214 18.8532 17.6505 18.8206C17.3797 18.788 17.1239 18.6776 16.9136 18.5026C16.7034 18.3276 16.5475 18.0953 16.4647 17.8335C16.3818 17.5717 16.3755 17.2915 16.4463 17.026C16.4611 17.2783 16.5745 17.5144 16.7617 17.6825C16.9068 17.8279 17.093 17.9247 17.2947 17.9592C17.4965 17.9938 17.704 17.9645 17.8887 17.8755C17.9886 17.8263 18.0804 17.762 18.161 17.6848C18.2976 17.5478 18.3916 17.3739 18.4316 17.184C18.4715 16.9941 18.4557 16.7966 18.386 16.6156C18.3163 16.4347 18.1958 16.2781 18.0392 16.165C17.8826 16.0521 17.6967 15.9875 17.5043 15.9792C17.8074 15.9046 18.1263 15.9318 18.4126 16.0567C18.6989 16.1816 18.9367 16.3974 19.0899 16.6712C19.2432 16.945 19.3034 17.2618 19.2614 17.5733C19.2194 17.8847 19.0775 18.1739 18.8573 18.3966C18.7445 18.5085 18.6144 18.6013 18.4722 18.6713" fill="#CC4422"/>
<path d="M18.4686 10.4922C18.1639 10.6427 17.8152 10.6755 17.4882 10.5846C17.6276 10.579 17.7644 10.5451 17.8904 10.4849C17.9853 10.4382 18.072 10.3763 18.1472 10.3018C18.3147 10.1362 18.4186 9.91623 18.4404 9.68079C18.4621 9.44546 18.4002 9.20993 18.2658 9.01621C18.1313 8.82249 17.933 8.68312 17.7062 8.6229C17.4792 8.56269 17.2385 8.58552 17.0268 8.68735C16.9253 8.73532 16.834 8.80276 16.7582 8.8859C16.581 9.06228 16.4761 9.29941 16.4645 9.55011C16.4019 9.30744 16.4046 9.05236 16.472 8.81097C16.5394 8.56958 16.6692 8.35056 16.8483 8.17632C16.961 8.06438 17.0911 7.97161 17.2333 7.9016C17.5378 7.74778 17.8868 7.70909 18.2171 7.7926C18.5474 7.87611 18.837 8.07623 19.0331 8.35663C19.2293 8.63702 19.319 8.97905 19.2861 9.32055C19.2531 9.66203 19.0997 9.98034 18.8536 10.2175C18.7408 10.3294 18.6108 10.4223 18.4686 10.4922Z" fill="#CC4422"/>
<path d="M10.0718 10.5566C9.76904 10.6371 9.44845 10.6148 9.15967 10.4931C8.87088 10.3714 8.63003 10.1571 8.47451 9.88337C8.31899 9.60965 8.25746 9.29183 8.2995 8.97926C8.34152 8.66668 8.48475 8.3768 8.70695 8.15456C8.81963 8.03798 8.95288 7.94353 9.09985 7.87605C9.34529 7.75798 9.61903 7.71282 9.88899 7.74588C10.159 7.77894 10.4139 7.88882 10.6242 8.06268C10.8344 8.23654 10.991 8.46717 11.0756 8.72753C11.1603 8.98789 11.1696 9.26722 11.1024 9.53272C11.0742 9.28419 10.9631 9.05269 10.787 8.87626C10.6415 8.72763 10.4534 8.6287 10.2492 8.59335C10.045 8.55801 9.83495 8.58801 9.64853 8.67921C9.55016 8.7269 9.46167 8.79299 9.38778 8.87395C9.20222 9.06106 9.09713 9.31417 9.0952 9.57863C9.09328 9.84311 9.19465 10.0978 9.37747 10.2875C9.56011 10.4596 9.79848 10.5593 10.0485 10.5679" fill="#CC4422"/>
</g>
</g>
<defs>
<clipPath id="clip0_404_4685">
<rect width="26.4" height="26.4" fill="white" transform="translate(0.5)"/>
</clipPath>
</defs>
</svg>
