<svg width="44" height="44" viewBox="0 0 44 44" fill="none" xmlns="http://www.w3.org/2000/svg">
<path fill-rule="evenodd" clip-rule="evenodd" d="M19.2065 13.1819C18.9543 13.2618 18.7053 13.3526 18.4602 13.4541C17.3379 13.919 16.3182 14.6003 15.4593 15.4593C14.6003 16.3182 13.919 17.3379 13.4541 18.4602C13.0852 19.3508 12.8584 20.2922 12.7805 21.25H17.2609C17.2929 20.1541 17.395 19.0741 17.5646 18.0506C17.7725 16.7956 18.0797 15.6391 18.4752 14.6504C18.6911 14.1106 18.9351 13.6164 19.2065 13.1819ZM22 11.25C20.5883 11.25 19.1904 11.5281 17.8862 12.0683C16.5819 12.6085 15.3968 13.4004 14.3986 14.3986C13.4004 15.3968 12.6085 16.5819 12.0683 17.8862C11.5281 19.1904 11.25 20.5883 11.25 22C11.25 23.4117 11.5281 24.8096 12.0683 26.1138C12.6085 27.4181 13.4004 28.6032 14.3986 29.6014C15.3968 30.5996 16.5819 31.3915 17.8862 31.9317C19.1904 32.4719 20.5883 32.75 22 32.75C23.4117 32.75 24.8096 32.4719 26.1138 31.9317C27.4181 31.3915 28.6032 30.5996 29.6014 29.6014C30.5996 28.6032 31.3915 27.4181 31.9317 26.1138C32.4719 24.8096 32.75 23.4117 32.75 22C32.75 20.5883 32.4719 19.1904 31.9317 17.8862C31.3915 16.5819 30.5996 15.3968 29.6014 14.3986C28.6032 13.4004 27.4181 12.6085 26.1138 12.0683C24.8096 11.5281 23.4117 11.25 22 11.25ZM22 12.75C21.7387 12.75 21.4012 12.8758 21.0088 13.2822C20.6134 13.6916 20.2176 14.3333 19.8679 15.2075C19.5206 16.0759 19.2385 17.1242 19.0444 18.2958C18.8887 19.2357 18.7932 20.2331 18.7616 21.25L25.2384 21.25C25.2068 20.2331 25.1113 19.2357 24.9556 18.2958C24.7615 17.1242 24.4794 16.0759 24.1321 15.2075C23.7824 14.3333 23.3866 13.6916 22.9912 13.2822C22.5988 12.8758 22.2613 12.75 22 12.75ZM26.7391 21.25C26.7071 20.1541 26.605 19.0741 26.4354 18.0506C26.2275 16.7956 25.9203 15.6391 25.5248 14.6504C25.3089 14.1106 25.0649 13.6164 24.7935 13.1819C25.0457 13.2618 25.2947 13.3526 25.5398 13.4541C26.6621 13.919 27.6818 14.6003 28.5407 15.4593C29.3997 16.3182 30.081 17.3379 30.5459 18.4602C30.9148 19.3508 31.1416 20.2922 31.2195 21.25H26.7391ZM25.2384 22.75L18.7616 22.75C18.7932 23.7669 18.8887 24.7643 19.0444 25.7042C19.2385 26.8758 19.5206 27.9241 19.8679 28.7925C20.2176 29.6667 20.6134 30.3084 21.0088 30.7178C21.4012 31.1242 21.7387 31.25 22 31.25C22.2613 31.25 22.5988 31.1242 22.9912 30.7178C23.3866 30.3084 23.7824 29.6667 24.1321 28.7925C24.4794 27.9241 24.7615 26.8758 24.9556 25.7042C25.1113 24.7643 25.2068 23.7669 25.2384 22.75ZM24.7935 30.8181C25.0649 30.3836 25.3089 29.8894 25.5248 29.3496C25.9203 28.3609 26.2275 27.2044 26.4354 25.9494C26.605 24.9259 26.7071 23.8459 26.7391 22.75H31.2195C31.1416 23.7078 30.9148 24.6492 30.5459 25.5398C30.081 26.6621 29.3997 27.6818 28.5407 28.5407C27.6818 29.3997 26.6621 30.081 25.5398 30.5459C25.2947 30.6474 25.0457 30.7382 24.7935 30.8181ZM19.2065 30.8181C18.9351 30.3836 18.6911 29.8894 18.4752 29.3496C18.0797 28.3609 17.7725 27.2044 17.5646 25.9494C17.395 24.9259 17.2929 23.8459 17.2609 22.75H12.7805C12.8584 23.7078 13.0852 24.6492 13.4541 25.5398C13.919 26.6621 14.6003 27.6818 15.4593 28.5407C16.3182 29.3997 17.3379 30.081 18.4602 30.5459C18.7053 30.6474 18.9543 30.7382 19.2065 30.8181Z" fill="#CC4422"/>
</svg>
