<svg xmlns="http://www.w3.org/2000/svg" width="33" height="33" viewBox="0 0 33 33" fill="none">
  <path d="M16.4997 4.5C13.2408 4.5 12.8318 4.51425 11.5518 4.5725C10.2743 4.631 9.40238 4.83325 8.6394 5.13C7.85017 5.4365 7.18069 5.8465 6.51371 6.51375C5.84623 7.18075 5.43624 7.85025 5.12875 8.63925C4.83126 9.4025 4.62877 10.2748 4.57127 11.5518C4.51402 12.8317 4.49902 13.241 4.49902 16.5C4.49902 19.759 4.51352 20.1668 4.57152 21.4468C4.63027 22.7243 4.83251 23.5962 5.129 24.3592C5.43575 25.1485 5.84573 25.818 6.51296 26.485C7.17969 27.1525 7.84917 27.5635 8.6379 27.87C9.40137 28.1667 10.2736 28.369 11.5508 28.4275C12.8308 28.4858 13.2395 28.5 16.4982 28.5C19.7573 28.5 20.165 28.4858 21.445 28.4275C22.7225 28.369 23.5954 28.1667 24.3589 27.87C25.1479 27.5635 25.8164 27.1525 26.4831 26.485C27.1506 25.818 27.5606 25.1485 27.8681 24.3595C28.1631 23.5963 28.3656 22.724 28.4255 21.447C28.483 20.167 28.498 19.759 28.498 16.5C28.498 13.241 28.483 12.832 28.4255 11.552C28.3656 10.2745 28.1631 9.4025 27.8681 8.6395C27.5606 7.85025 27.1506 7.18075 26.4831 6.51375C25.8156 5.84625 25.1481 5.43625 24.3582 5.13C23.5932 4.83325 22.7207 4.631 21.4433 4.5725C20.1633 4.51425 19.7558 4.5 16.4959 4.5H16.4997ZM15.4232 6.6625C15.7427 6.662 16.0992 6.6625 16.4997 6.6625C19.7036 6.6625 20.0833 6.674 21.3485 6.7315C22.5185 6.785 23.1535 6.9805 23.5764 7.14475C24.1364 7.36225 24.5357 7.62225 24.9554 8.04225C25.3754 8.46225 25.6354 8.86225 25.8534 9.42225C26.0176 9.84475 26.2134 10.4797 26.2666 11.6497C26.3241 12.9148 26.3366 13.2947 26.3366 16.4972C26.3366 19.6997 26.3241 20.0797 26.2666 21.3447C26.2131 22.5147 26.0176 23.1497 25.8534 23.5723C25.6359 24.1322 25.3754 24.531 24.9554 24.9508C24.5354 25.3708 24.1367 25.6307 23.5764 25.8482C23.154 26.0133 22.5185 26.2083 21.3485 26.2617C20.0836 26.3193 19.7036 26.3318 16.4997 26.3318C13.2955 26.3318 12.9158 26.3193 11.6508 26.2617C10.4808 26.2077 9.84586 26.0122 9.42262 25.848C8.86264 25.6305 8.46265 25.3705 8.04267 24.9505C7.62268 24.5305 7.36269 24.1315 7.14469 23.5713C6.98045 23.1488 6.7847 22.5138 6.73146 21.3438C6.67396 20.0787 6.66246 19.6987 6.66246 16.4942C6.66246 13.2897 6.67396 12.9118 6.73146 11.6468C6.78495 10.4768 6.98045 9.84175 7.14469 9.41875C7.36219 8.85875 7.62268 8.45875 8.04267 8.03875C8.46265 7.61875 8.86264 7.35875 9.42262 7.14075C9.84561 6.97575 10.4808 6.78075 11.6508 6.727C12.7578 6.677 13.1868 6.662 15.4232 6.6595V6.6625ZM22.905 8.655C22.11 8.655 21.465 9.29925 21.465 10.0945C21.465 10.8895 22.11 11.5345 22.905 11.5345C23.6999 11.5345 24.3449 10.8895 24.3449 10.0945C24.3449 9.2995 23.6999 8.6545 22.905 8.6545V8.655ZM16.4997 10.3375C13.0965 10.3375 10.3373 13.0968 10.3373 16.5C10.3373 19.9032 13.0965 22.6612 16.4997 22.6612C19.9028 22.6612 22.661 19.9032 22.661 16.5C22.661 13.0968 19.9026 10.3375 16.4994 10.3375H16.4997ZM16.4997 12.5C18.7086 12.5 20.4995 14.2908 20.4995 16.5C20.4995 18.709 18.7086 20.5 16.4997 20.5C14.2905 20.5 12.4998 18.709 12.4998 16.5C12.4998 14.2908 14.2905 12.5 16.4997 12.5Z" fill="white"/>
</svg>