<svg xmlns="http://www.w3.org/2000/svg" width="143" height="60" viewBox="0 0 143 60" fill="none">
  <path d="M55.0737 1.32227C55.1288 1.93669 55.2311 2.56668 55.3727 3.20833C55.5143 3.84998 55.6559 4.54607 55.7975 5.30438C55.9352 6.05881 56.0611 6.63046 56.1791 7.01934C56.9107 11.0442 58.6218 14.3575 61.3084 16.9552C63.995 19.5529 67.8224 21.89 72.7983 23.955C74.5527 24.6783 75.8782 25.3627 76.7829 26.0082C77.6876 26.6499 77.9984 27.3343 77.7152 28.0654C77.3769 28.9598 76.7082 29.4187 75.7209 29.4459C74.7296 29.4732 73.5023 29.1115 72.0351 28.3532C70.564 27.5988 69.1361 26.751 67.7515 25.7983C66.363 24.8455 64.88 23.7333 63.2987 22.4422C61.269 20.879 59.794 20.0429 58.8892 19.9262C57.8154 19.7629 56.9107 20.1401 56.1791 21.0617C55.4435 21.9834 55.0737 23.7566 55.0737 26.3816V59.9962H81.3616V1.32227H55.0737Z" fill="white"/>
  <path d="M124.513 1.32223C123.722 1.32223 122.79 1.38057 121.716 1.48945C120.642 1.59834 119.792 1.76944 119.171 1.9911C118.549 2.21276 117.983 2.55109 117.475 2.99441C116.461 3.94716 115.662 5.07491 115.103 6.38932C114.537 7.70373 114.211 9.0298 114.128 10.3714C114.045 11.7131 114.045 13.0936 114.128 14.5169C114.211 15.944 114.352 17.2585 114.553 18.4601C114.75 19.6617 114.875 20.7195 114.934 21.6411C114.989 22.5627 114.907 23.2783 114.679 23.7799C114.455 24.2816 114.03 24.5071 113.404 24.4527C112.897 24.3399 112.614 23.8383 112.558 22.94C112.499 22.0455 112.543 20.875 112.684 19.4206C112.826 17.9662 112.924 16.4457 112.983 14.8552C113.038 13.2608 112.814 11.5886 112.303 9.82311C111.795 8.06538 110.946 6.54098 109.758 5.25768C108.177 3.58162 105.659 2.50443 102.213 2.02611C98.7597 1.55168 93.2527 1.31445 85.6807 1.31445V59.9884H104.082C101.875 56.189 100.545 51.2153 100.093 45.0671C99.5857 37.9701 100.121 32.0242 101.706 27.2137C102.839 23.9744 104.027 22.9944 105.27 24.2777C105.95 25.0049 106.214 26.1793 106.076 27.8009C105.934 29.4187 105.734 31.3592 105.482 33.6224C105.226 35.8857 104.861 38.2345 104.377 40.665C103.897 43.0916 103.684 45.4832 103.743 47.8282C103.799 50.1731 104.07 52.2691 104.55 54.1124C105.03 55.9557 106.088 57.3984 107.728 58.4328C109.368 59.4673 111.571 59.9262 114.34 59.8134C116.661 59.6462 118.427 59.059 119.643 58.0518C120.854 57.0485 121.562 55.734 121.763 54.1124C121.96 52.4947 122.019 50.6359 121.928 48.5398C121.846 46.4438 121.673 44.2388 121.421 41.9172C121.165 39.5995 121.212 37.2118 121.547 34.7541C122.058 30.0564 123.187 25.001 124.941 19.5801C125.339 18.3473 125.732 17.2857 126.129 16.3951C127.144 14.3302 127.994 13.5174 128.674 13.9685C129.579 14.6413 129.465 16.9551 128.332 20.9256C127.825 22.7105 127.415 24.1805 127.105 25.3238C126.794 26.471 126.381 28.0654 125.874 30.1031C125.366 32.1447 124.969 33.8752 124.686 35.2985C124.402 36.7257 124.076 38.4329 123.71 40.4161C123.344 42.3994 123.128 44.1027 123.077 45.5299C123.018 46.9532 122.99 48.4737 122.99 50.0953C122.99 51.7169 123.159 53.0586 123.502 54.1163C123.84 55.178 124.265 56.189 124.772 57.134C125.28 58.0868 126.003 58.7984 126.936 59.2728C127.868 59.7512 128.93 59.9884 130.114 59.9884H143V1.31445H124.517L124.513 1.32223Z" fill="white"/>
  <path d="M24.4707 13.1168C20.309 11.2891 16.3007 15.2479 18.1455 19.3739C18.5625 20.3033 19.3217 21.0538 20.2658 21.4621C24.4432 23.2743 28.424 19.3078 26.5752 15.1973C26.1582 14.2757 25.4069 13.529 24.4707 13.1168Z" fill="#60131D"/>
  <path d="M47.9577 33.7196C46.3528 31.6819 44.1815 29.9942 41.4871 28.6953C41.1684 28.5398 41.1016 28.1159 41.373 27.8942C42.5924 26.8987 43.5797 25.7748 44.3271 24.5343C45.5976 22.4149 46.9154 19.2378 46.5259 14.3924C46.1444 9.71418 42.6042 4.91543 39.4101 2.62105C37.3647 1.1472 34.6742 0 22.6376 0H12.2373C5.47947 0 0 5.54152 0 12.3741V60H18.6214V55.1662C18.6214 53.7702 20.5449 53.3735 21.1152 54.649C21.1231 54.6724 21.1349 54.6918 21.1428 54.7113C22.2166 57.0368 24.5217 59.895 34.5129 59.9922C34.682 59.9961 34.8591 59.9961 35.0361 59.9961C37.9036 59.9961 40.4172 59.4828 42.498 58.4834C44.5592 57.4878 46.2663 56.1812 47.5801 54.5868C48.8624 53.0235 49.8262 51.2308 50.428 49.2631C51.022 47.3304 51.3209 45.3899 51.3209 43.4844C51.3209 39.8484 50.188 36.5623 47.9577 33.7196ZM24.4706 13.1169C25.4028 13.5252 26.1581 14.2718 26.575 15.1974C28.4238 19.3117 24.4391 23.2744 20.2656 21.4622C19.3255 21.0539 18.5623 20.3033 18.1454 19.3739C16.3006 15.2479 20.3089 11.2891 24.4706 13.1169ZM31.248 46.9181C28.1366 47.9992 24.7302 46.3854 23.6367 43.3133C22.5432 40.2411 19.7307 35.9557 22.8421 34.8746C25.9535 33.7935 33.8048 36.3212 34.8984 39.3972C35.9919 42.4733 34.3555 45.8371 31.252 46.9181H31.248Z" fill="white"/>
</svg>