<svg width="143" height="60" viewBox="0 0 143 60" fill="none" xmlns="http://www.w3.org/2000/svg">
<path d="M55.0737 1.32202C55.1288 1.93645 55.2311 2.56643 55.3727 3.20808C55.5143 3.84973 55.6559 4.54583 55.7975 5.30414C55.9352 6.05856 56.0611 6.63022 56.1791 7.01909C56.9107 11.044 58.6218 14.3572 61.3084 16.9549C63.995 19.5526 67.8224 21.8898 72.7983 23.9547C74.5527 24.678 75.8782 25.3625 76.7829 26.008C77.6876 26.6497 77.9984 27.3341 77.7152 28.0652C77.3769 28.9596 76.7082 29.4185 75.7209 29.4457C74.7296 29.4729 73.5023 29.1112 72.0351 28.3529C70.564 27.5985 69.1361 26.7508 67.7515 25.798C66.363 24.8453 64.88 23.7331 63.2987 22.442C61.269 20.8787 59.794 20.0426 58.8892 19.926C57.8154 19.7626 56.9107 20.1398 56.1791 21.0615C55.4435 21.9831 55.0737 23.7564 55.0737 26.3813V59.9959H81.3616V1.32202H55.0737Z" fill="#A32323"/>
<path d="M124.513 1.3221C123.722 1.3221 122.79 1.38045 121.716 1.48933C120.642 1.59822 119.792 1.76931 119.171 1.99098C118.549 2.21264 117.983 2.55097 117.475 2.99429C116.461 3.94704 115.662 5.07479 115.103 6.3892C114.537 7.7036 114.211 9.02968 114.128 10.3713C114.045 11.7129 114.045 13.0935 114.128 14.5167C114.211 15.9439 114.352 17.2583 114.553 18.46C114.75 19.6616 114.875 20.7193 114.934 21.641C114.989 22.5626 114.907 23.2782 114.679 23.7798C114.455 24.2815 114.03 24.507 113.404 24.4526C112.897 24.3398 112.614 23.8382 112.558 22.9398C112.499 22.0454 112.543 20.8749 112.684 19.4205C112.826 17.9661 112.924 16.4456 112.983 14.8551C113.038 13.2607 112.814 11.5885 112.303 9.82298C111.795 8.06526 110.946 6.54086 109.758 5.25756C108.177 3.5815 105.659 2.5043 102.213 2.02598C98.7597 1.55155 93.2527 1.31433 85.6807 1.31433V59.9882H104.082C101.875 56.1889 100.545 51.2152 100.093 45.067C99.5857 37.97 100.121 32.024 101.706 27.2136C102.839 23.9743 104.027 22.9943 105.27 24.2776C105.95 25.0048 106.214 26.1792 106.076 27.8008C105.934 29.4186 105.734 31.3591 105.482 33.6223C105.226 35.8856 104.861 38.2344 104.377 40.6649C103.897 43.0915 103.684 45.4831 103.743 47.828C103.799 50.173 104.07 52.269 104.55 54.1123C105.03 55.9556 106.088 57.3983 107.728 58.4327C109.368 59.4671 111.571 59.926 114.34 59.8133C116.661 59.646 118.427 59.0588 119.643 58.0516C120.854 57.0483 121.562 55.7339 121.763 54.1123C121.96 52.4946 122.019 50.6357 121.928 48.5397C121.846 46.4436 121.673 44.2387 121.421 41.9171C121.165 39.5994 121.212 37.2117 121.547 34.754C122.058 30.0563 123.187 25.0009 124.941 19.5799C125.339 18.3472 125.732 17.2856 126.129 16.395C127.144 14.3301 127.994 13.5173 128.674 13.9684C129.579 14.6412 129.465 16.955 128.332 20.9254C127.825 22.7104 127.415 24.1804 127.105 25.3237C126.794 26.4708 126.381 28.0653 125.874 30.103C125.366 32.1446 124.969 33.8751 124.686 35.2984C124.402 36.7256 124.076 38.4327 123.71 40.416C123.344 42.3993 123.128 44.1026 123.077 45.5298C123.018 46.9531 122.99 48.4736 122.99 50.0952C122.99 51.7168 123.159 53.0584 123.502 54.1162C123.84 55.1778 124.265 56.1889 124.772 57.1339C125.28 58.0866 126.003 58.7983 126.936 59.2727C127.868 59.751 128.93 59.9882 130.114 59.9882H143V1.31433H124.517L124.513 1.3221Z" fill="#A32323"/>
<path d="M24.4707 13.1168C20.309 11.2891 16.3007 15.2479 18.1455 19.3739C18.5625 20.3033 19.3217 21.0538 20.2658 21.4621C24.4432 23.2743 28.424 19.3078 26.5752 15.1973C26.1582 14.2757 25.4069 13.529 24.4707 13.1168Z" fill="white"/>
<path d="M47.9577 33.7196C46.3528 31.6819 44.1815 29.9942 41.4871 28.6953C41.1684 28.5398 41.1016 28.1159 41.373 27.8942C42.5924 26.8987 43.5797 25.7748 44.3271 24.5343C45.5976 22.4149 46.9154 19.2378 46.5259 14.3924C46.1444 9.71418 42.6042 4.91543 39.4101 2.62105C37.3647 1.1472 34.6742 0 22.6376 0H12.2373C5.47947 0 0 5.54152 0 12.3741V60H18.6214V55.1662C18.6214 53.7702 20.5449 53.3735 21.1152 54.649C21.1231 54.6724 21.1349 54.6918 21.1428 54.7113C22.2166 57.0368 24.5217 59.895 34.5129 59.9922C34.682 59.9961 34.8591 59.9961 35.0361 59.9961C37.9036 59.9961 40.4172 59.4828 42.498 58.4834C44.5592 57.4878 46.2663 56.1812 47.5801 54.5868C48.8624 53.0235 49.8262 51.2308 50.428 49.2631C51.022 47.3304 51.3209 45.3899 51.3209 43.4844C51.3209 39.8484 50.188 36.5623 47.9577 33.7196ZM24.4706 13.1169C25.4028 13.5252 26.1581 14.2718 26.575 15.1974C28.4238 19.3117 24.4391 23.2744 20.2656 21.4622C19.3255 21.0539 18.5623 20.3033 18.1454 19.3739C16.3006 15.2479 20.3089 11.2891 24.4706 13.1169ZM31.248 46.9181C28.1366 47.9992 24.7302 46.3854 23.6367 43.3133C22.5432 40.2411 19.7307 35.9557 22.8421 34.8746C25.9535 33.7935 33.8048 36.3212 34.8984 39.3972C35.9919 42.4733 34.3555 45.8371 31.252 46.9181H31.248Z" fill="#A32323"/>
</svg>
