<svg width="33" height="33" viewBox="0 0 33 33" fill="none" xmlns="http://www.w3.org/2000/svg">
<path d="M28.374 16.5C28.374 23.0584 23.0574 28.375 16.499 28.375C9.94064 28.375 4.62402 23.0584 4.62402 16.5C4.62402 9.94162 9.94064 4.625 16.499 4.625C23.0574 4.625 28.374 9.94162 28.374 16.5Z" stroke="white"/>
<path d="M14.4418 19.0171L19.4289 22.7016C19.998 23.0156 20.4088 22.853 20.5505 22.1732L22.5805 12.6071C22.7884 11.7738 22.2629 11.3959 21.7185 11.643L9.79825 16.2394C8.98458 16.5658 8.98932 17.0197 9.64993 17.222L12.7089 18.1767L19.7908 13.7089C20.1252 13.5061 20.432 13.6151 20.1801 13.8386" fill="white"/>
</svg>
